<svg xmlns="http://www.w3.org/2000/svg" style="display: none">

  <symbol id="angular" viewBox="0 0 256 270" preserveAspectRatio="xMinYMin meet">
    <path d="M127.606.341L.849 44.95 20.88 211.022l106.86 58.732 107.412-59.528L255.175 44.16 127.606.341z" fill="#B3B3B3"/><path d="M242.532 53.758L127.31 14.466v241.256l96.561-53.441 18.66-148.523z" fill="#A6120D"/><path d="M15.073 54.466l17.165 148.525 95.07 52.731V14.462L15.074 54.465z" fill="#DD1B16"/><path d="M159.027 142.898L127.31 157.73H93.881l-15.714 39.305-29.228.54L127.31 23.227l31.717 119.672zm-3.066-7.467l-28.44-56.303-23.329 55.334h23.117l28.652.97z" fill="#F2F2F2"/><path d="M127.309 23.226l.21 55.902 26.47 55.377h-26.62l-.06 23.189 36.81.035 17.204 39.852 27.967.518-81.981-174.873z" fill="#B3B3B3"/>
  </symbol>

  <symbol id="home" viewBox="0 1 511 511.999">
    <path d="m498.699219 222.695312c-.015625-.011718-.027344-.027343-.039063-.039062l-208.855468-208.847656c-8.902344-8.90625-20.738282-13.808594-33.328126-13.808594-12.589843 0-24.425781 4.902344-33.332031 13.808594l-208.746093 208.742187c-.070313.070313-.144532.144531-.210938.214844-18.28125 18.386719-18.25 48.21875.089844 66.558594 8.378906 8.382812 19.441406 13.234375 31.273437 13.746093.484375.046876.96875.070313 1.457031.070313h8.320313v153.695313c0 30.417968 24.75 55.164062 55.167969 55.164062h81.710937c8.285157 0 15-6.71875 15-15v-120.5c0-13.878906 11.292969-25.167969 25.171875-25.167969h48.195313c13.878906 0 25.167969 11.289063 25.167969 25.167969v120.5c0 8.28125 6.714843 15 15 15h81.710937c30.421875 0 55.167969-24.746094 55.167969-55.164062v-153.695313h7.71875c12.585937 0 24.421875-4.902344 33.332031-13.8125 18.359375-18.367187 18.367187-48.253906.027344-66.632813zm-21.242188 45.421876c-3.238281 3.238281-7.542969 5.023437-12.117187 5.023437h-22.71875c-8.285156 0-15 6.714844-15 15v168.695313c0 13.875-11.289063 25.164062-25.167969 25.164062h-66.710937v-105.5c0-30.417969-24.746094-55.167969-55.167969-55.167969h-48.195313c-30.421875 0-55.171875 24.75-55.171875 55.167969v105.5h-66.710937c-13.875 0-25.167969-11.289062-25.167969-25.164062v-168.695313c0-8.285156-6.714844-15-15-15h-22.328125c-.234375-.015625-.464844-.027344-.703125-.03125-4.46875-.078125-8.660156-1.851563-11.800781-4.996094-6.679688-6.679687-6.679688-17.550781 0-24.234375.003906 0 .003906-.003906.007812-.007812l.011719-.011719 208.847656-208.839844c3.234375-3.238281 7.535157-5.019531 12.113281-5.019531 4.574219 0 8.875 1.78125 12.113282 5.019531l208.800781 208.796875c.03125.03125.066406.0625.097656.09375 6.644531 6.691406 6.632813 17.539063-.03125 24.207032zm0 0"/>
  </symbol>

  <symbol id="add" viewBox="0 0 16 16">
      <path d="M8 0a1 1 0 0 1 1 1v6h6a1 1 0 1 1 0 2H9v6a1 1 0 1 1-2 0V9H1a1 1 0 0 1 0-2h6V1a1 1 0 0 1 1-1z"/>
  </symbol>

  <symbol id="search" viewBox="0 0 16 16">
    <path d="M11.742 10.344a6.5 6.5 0 1 0-1.397 1.398h-.001c.03.04.062.078.098.115l3.85 3.85a1 1 0 0 0 1.415-1.414l-3.85-3.85a1.007 1.007 0 0 0-.115-.1zM12 6.5a5.5 5.5 0 1 1-11 0 5.5 5.5 0 0 1 11 0z"/>
  </symbol>

  <symbol id="cursor" viewBox="0 0 16 16">
    <path d="M14.082 2.182a.5.5 0 0 1 .103.557L8.528 15.467a.5.5 0 0 1-.917-.007L5.57 10.694.803 8.652a.5.5 0 0 1-.006-.916l12.728-5.657a.5.5 0 0 1 .556.103zM2.25 8.184l3.897 1.67a.5.5 0 0 1 .262.263l1.67 3.897L12.743 3.52 2.25 8.184z"/>
  </symbol>

  <symbol id="bell" viewBox="0 0 16 16">
    <path d="M8 16a2 2 0 0 0 2-2H6a2 2 0 0 0 2 2zM8 1.918l-.797.161A4.002 4.002 0 0 0 4 6c0 .628-.134 2.197-.459 3.742-.16.767-.376 1.566-.663 2.258h10.244c-.287-.692-.502-1.49-.663-2.258C12.134 8.197 12 6.628 12 6a4.002 4.002 0 0 0-3.203-3.92L8 1.917zM14.22 12c.223.447.481.801.78 1H1c.299-.199.557-.553.78-1C2.68 10.2 3 6.88 3 6c0-2.42 1.72-4.44 4.005-4.901a1 1 0 1 1 1.99 0A5.002 5.002 0 0 1 13 6c0 .88.32 4.2 1.22 6z"/>
  </symbol>

  <symbol id="list" viewBox="0 0 16 16">
    <path fill-rule="evenodd" d="M2.5 12a.5.5 0 0 1 .5-.5h10a.5.5 0 0 1 0 1H3a.5.5 0 0 1-.5-.5zm0-4a.5.5 0 0 1 .5-.5h10a.5.5 0 0 1 0 1H3a.5.5 0 0 1-.5-.5zm0-4a.5.5 0 0 1 .5-.5h10a.5.5 0 0 1 0 1H3a.5.5 0 0 1-.5-.5z"/>
  </symbol>

</svg>
