<svg xmlns="http://www.w3.org/2000/svg" style="display: none">

  <symbol id="angular" viewBox="0 0 256 270" preserveAspectRatio="xMinYMin meet">
    <path d="M127.606.341L.849 44.95 20.88 211.022l106.86 58.732 107.412-59.528L255.175 44.16 127.606.341z"
          fill="#B3B3B3"/>
    <path d="M242.532 53.758L127.31 14.466v241.256l96.561-53.441 18.66-148.523z" fill="#A6120D"/>
    <path d="M15.073 54.466l17.165 148.525 95.07 52.731V14.462L15.074 54.465z" fill="#DD1B16"/>
    <path
      d="M159.027 142.898L127.31 157.73H93.881l-15.714 39.305-29.228.54L127.31 23.227l31.717 119.672zm-3.066-7.467l-28.44-56.303-23.329 55.334h23.117l28.652.97z"
      fill="#F2F2F2"/>
    <path
      d="M127.309 23.226l.21 55.902 26.47 55.377h-26.62l-.06 23.189 36.81.035 17.204 39.852 27.967.518-81.981-174.873z"
      fill="#B3B3B3"/>
  </symbol>

  <symbol id="add" viewBox="0 0 16 16">
    <path d="M8 15A7 7 0 1 1 8 1a7 7 0 0 1 0 14zm0 1A8 8 0 1 0 8 0a8 8 0 0 0 0 16z"/>
    <path d="M8 4a.5.5 0 0 1 .5.5v3h3a.5.5 0 0 1 0 1h-3v3a.5.5 0 0 1-1 0v-3h-3a.5.5 0 0 1 0-1h3v-3A.5.5 0 0 1 8 4z"/>
  </symbol>

  <symbol id="search" viewBox="0 0 16 16">
    <path
      d="M11.742 10.344a6.5 6.5 0 1 0-1.397 1.398h-.001c.03.04.062.078.098.115l3.85 3.85a1 1 0 0 0 1.415-1.414l-3.85-3.85a1.007 1.007 0 0 0-.115-.1zM12 6.5a5.5 5.5 0 1 1-11 0 5.5 5.5 0 0 1 11 0z"/>
  </symbol>

  <symbol id="cursor" viewBox="0 0 16 16">
    <path
      d="M14.082 2.182a.5.5 0 0 1 .103.557L8.528 15.467a.5.5 0 0 1-.917-.007L5.57 10.694.803 8.652a.5.5 0 0 1-.006-.916l12.728-5.657a.5.5 0 0 1 .556.103zM2.25 8.184l3.897 1.67a.5.5 0 0 1 .262.263l1.67 3.897L12.743 3.52 2.25 8.184z"/>
  </symbol>

  <symbol id="bell" viewBox="0 0 16 16">
    <path
      d="M8 16a2 2 0 0 0 2-2H6a2 2 0 0 0 2 2zM8 1.918l-.797.161A4.002 4.002 0 0 0 4 6c0 .628-.134 2.197-.459 3.742-.16.767-.376 1.566-.663 2.258h10.244c-.287-.692-.502-1.49-.663-2.258C12.134 8.197 12 6.628 12 6a4.002 4.002 0 0 0-3.203-3.92L8 1.917zM14.22 12c.223.447.481.801.78 1H1c.299-.199.557-.553.78-1C2.68 10.2 3 6.88 3 6c0-2.42 1.72-4.44 4.005-4.901a1 1 0 1 1 1.99 0A5.002 5.002 0 0 1 13 6c0 .88.32 4.2 1.22 6z"/>
  </symbol>

  <symbol id="list" viewBox="0 0 16 16">
    <path fill-rule="evenodd"
          d="M2.5 12a.5.5 0 0 1 .5-.5h10a.5.5 0 0 1 0 1H3a.5.5 0 0 1-.5-.5zm0-4a.5.5 0 0 1 .5-.5h10a.5.5 0 0 1 0 1H3a.5.5 0 0 1-.5-.5zm0-4a.5.5 0 0 1 .5-.5h10a.5.5 0 0 1 0 1H3a.5.5 0 0 1-.5-.5z"/>
  </symbol>

  <symbol id="home" viewBox="0 0 16 16">
    <path
      d="M8.354 1.146a.5.5 0 0 0-.708 0l-6 6A.5.5 0 0 0 1.5 7.5v7a.5.5 0 0 0 .5.5h4.5a.5.5 0 0 0 .5-.5v-4h2v4a.5.5 0 0 0 .5.5H14a.5.5 0 0 0 .5-.5v-7a.5.5 0 0 0-.146-.354L13 5.793V2.5a.5.5 0 0 0-.5-.5h-1a.5.5 0 0 0-.5.5v1.293L8.354 1.146zM2.5 14V7.707l5.5-5.5 5.5 5.5V14H10v-4a.5.5 0 0 0-.5-.5h-3a.5.5 0 0 0-.5.5v4H2.5z"/>
  </symbol>

  <symbol id="user" viewBox="0 0 16 16">
    <path fill="#ffffff"
          d="M8 8a3 3 0 1 0 0-6 3 3 0 0 0 0 6zm2-3a2 2 0 1 1-4 0 2 2 0 0 1 4 0zm4 8c0 1-1 1-1 1H3s-1 0-1-1 1-4 6-4 6 3 6 4zm-1-.004c-.001-.246-.154-.986-.832-1.664C11.516 10.68 10.289 10 8 10c-2.29 0-3.516.68-4.168 1.332-.678.678-.83 1.418-.832 1.664h10z"/>
  </symbol>

  <symbol id="bank" viewBox="0 0 16 16">
    <path fill="#F5B8DA"
          d="M8 .95 14.61 4h.89a.5.5 0 0 1 .5.5v2a.5.5 0 0 1-.5.5H15v7a.5.5 0 0 1 .485.379l.5 2A.5.5 0 0 1 15.5 17H.5a.5.5 0 0 1-.485-.621l.5-2A.5.5 0 0 1 1 14V7H.5a.5.5 0 0 1-.5-.5v-2A.5.5 0 0 1 .5 4h.89L8 .95zM3.776 4h8.447L8 2.05 3.776 4zM2 7v7h1V7H2zm2 0v7h2.5V7H4zm3.5 0v7h1V7h-1zm2 0v7H12V7H9.5zM13 7v7h1V7h-1zm2-1V5H1v1h14zm-.39 9H1.39l-.25 1h13.72l-.25-1z"/>
  </symbol>

  <symbol id="broadcast" viewBox="0 0 16 16">
    <path
      d="M3.05 3.05a7 7 0 0 0 0 9.9.5.5 0 0 1-.707.707 8 8 0 0 1 0-11.314.5.5 0 0 1 .707.707zm2.122 2.122a4 4 0 0 0 0 5.656.5.5 0 1 1-.708.708 5 5 0 0 1 0-7.072.5.5 0 0 1 .708.708zm5.656-.708a.5.5 0 0 1 .708 0 5 5 0 0 1 0 7.072.5.5 0 1 1-.708-.708 4 4 0 0 0 0-5.656.5.5 0 0 1 0-.708zm2.122-2.12a.5.5 0 0 1 .707 0 8 8 0 0 1 0 11.313.5.5 0 0 1-.707-.707 7 7 0 0 0 0-9.9.5.5 0 0 1 0-.707zM10 8a2 2 0 1 1-4 0 2 2 0 0 1 4 0z"/>
  </symbol>

  <symbol id="analytics" viewBox="0 0 16 16">
    <path
      d="M4 11H2v3h2v-3zm5-4H7v7h2V7zm5-5v12h-2V2h2zm-2-1a1 1 0 0 0-1 1v12a1 1 0 0 0 1 1h2a1 1 0 0 0 1-1V2a1 1 0 0 0-1-1h-2zM6 7a1 1 0 0 1 1-1h2a1 1 0 0 1 1 1v7a1 1 0 0 1-1 1H7a1 1 0 0 1-1-1V7zm-5 4a1 1 0 0 1 1-1h2a1 1 0 0 1 1 1v3a1 1 0 0 1-1 1H2a1 1 0 0 1-1-1v-3z"/>
  </symbol>

  <symbol id="bicycle" viewBox="0 0 16 16">
    <path
      d="M4 4.5a.5.5 0 0 1 .5-.5H6a.5.5 0 0 1 0 1v.5h4.14l.386-1.158A.5.5 0 0 1 11 4h1a.5.5 0 0 1 0 1h-.64l-.311.935.807 1.29a3 3 0 1 1-.848.53l-.508-.812-2.076 3.322A.5.5 0 0 1 8 10.5H5.959a3 3 0 1 1-1.815-3.274L5 5.856V5h-.5a.5.5 0 0 1-.5-.5zm1.5 2.443-.508.814c.5.444.85 1.054.967 1.743h1.139L5.5 6.943zM8 9.057 9.598 6.5H6.402L8 9.057zM4.937 9.5a1.997 1.997 0 0 0-.487-.877l-.548.877h1.035zM3.603 8.092A2 2 0 1 0 4.937 10.5H3a.5.5 0 0 1-.424-.765l1.027-1.643zm7.947.53a2 2 0 1 0 .848-.53l1.026 1.643a.5.5 0 1 1-.848.53L11.55 8.623z"/>
  </symbol>

  <symbol id="book" viewBox="0 0 16 16">
    <path
      d="M1 2.828c.885-.37 2.154-.769 3.388-.893 1.33-.134 2.458.063 3.112.752v9.746c-.935-.53-2.12-.603-3.213-.493-1.18.12-2.37.461-3.287.811V2.828zm7.5-.141c.654-.689 1.782-.886 3.112-.752 1.234.124 2.503.523 3.388.893v9.923c-.918-.35-2.107-.692-3.287-.81-1.094-.111-2.278-.039-3.213.492V2.687zM8 1.783C7.015.936 5.587.81 4.287.94c-1.514.153-3.042.672-3.994 1.105A.5.5 0 0 0 0 2.5v11a.5.5 0 0 0 .707.455c.882-.4 2.303-.881 3.68-1.02 1.409-.142 2.59.087 3.223.877a.5.5 0 0 0 .78 0c.633-.79 1.814-1.019 3.222-.877 1.378.139 2.8.62 3.681 1.02A.5.5 0 0 0 16 13.5v-11a.5.5 0 0 0-.293-.455c-.952-.433-2.48-.952-3.994-1.105C10.413.809 8.985.936 8 1.783z"/>
  </symbol>

  <symbol id="star" viewBox="0 0 16 16">
    <path
      d="M2.866 14.85c-.078.444.36.791.746.593l4.39-2.256 4.389 2.256c.386.198.824-.149.746-.592l-.83-4.73 3.522-3.356c.33-.314.16-.888-.282-.95l-4.898-.696L8.465.792a.513.513 0 0 0-.927 0L5.354 5.12l-4.898.696c-.441.062-.612.636-.283.95l3.523 3.356-.83 4.73zm4.905-2.767-3.686 1.894.694-3.957a.565.565 0 0 0-.163-.505L1.71 6.745l4.052-.576a.525.525 0 0 0 .393-.288L8 2.223l1.847 3.658a.525.525 0 0 0 .393.288l4.052.575-2.906 2.77a.565.565 0 0 0-.163.506l.694 3.957-3.686-1.894a.503.503 0 0 0-.461 0z"/>
  </symbol>

  <symbol id="egg" viewBox="0 0 16 16">
    <path d="M8 11a3 3 0 1 0 0-6 3 3 0 0 0 0 6z"/>
    <path
      d="M13.997 5.17a5 5 0 0 0-8.101-4.09A5 5 0 0 0 1.28 9.342a5 5 0 0 0 8.336 5.109 3.5 3.5 0 0 0 5.201-4.065 3.001 3.001 0 0 0-.822-5.216zm-1-.034a1 1 0 0 0 .668.977 2.001 2.001 0 0 1 .547 3.478 1 1 0 0 0-.341 1.113 2.5 2.5 0 0 1-3.715 2.905 1 1 0 0 0-1.262.152 4 4 0 0 1-6.67-4.087 1 1 0 0 0-.2-1 4 4 0 0 1 3.693-6.61 1 1 0 0 0 .8-.2 4 4 0 0 1 6.48 3.273z"/>
  </symbol>


</svg>
